<?xml version="1.0" standalone="no"?>
<!DOCTYPE svg PUBLIC "-//W3C//DTD SVG 20010904//EN"
 "http://www.w3.org/TR/2001/REC-SVG-20010904/DTD/svg10.dtd">
<svg version="1.0" xmlns="http://www.w3.org/2000/svg"
 width="700.000000pt" height="700.000000pt" viewBox="0 0 700.000000 700.000000"
 preserveAspectRatio="xMidYMid meet">
<metadata>
Created by potrace 1.14, written by Peter Selinger 2001-2017
</metadata>
<g transform="translate(0.000000,700.000000) scale(0.100000,-0.100000)"
fill="#000000" stroke="none">
<path d="M2805 5184 c-11 -2 -45 -9 -75 -15 -105 -21 -228 -88 -304 -166 -83
-84 -128 -206 -115 -314 14 -119 100 -245 214 -316 28 -17 194 -104 370 -193
176 -90 340 -177 364 -193 313 -213 210 -596 -189 -703 -103 -27 -264 -23
-366 10 -89 29 -187 87 -241 144 -40 42 -89 141 -96 192 -7 53 -16 68 -52 90
-18 11 -35 20 -38 20 -17 0 8 -113 38 -175 127 -263 501 -387 834 -278 183 59
316 180 365 331 17 50 22 148 11 202 -10 51 -68 153 -114 199 -82 84 -67 76
-546 321 -286 147 -324 169 -378 229 -66 73 -82 115 -82 216 0 81 3 95 30 143
81 147 258 238 465 240 126 1 222 -25 320 -86 99 -61 162 -147 180 -243 8 -43
17 -60 46 -86 20 -18 41 -30 46 -27 16 10 -1 94 -33 163 -56 123 -201 232
-364 276 -58 16 -250 29 -290 19z"/>
<path d="M3483 5157 c-2 -4 4 -10 14 -13 50 -16 84 -36 100 -61 17 -26 18 -75
18 -863 0 -782 -1 -838 -18 -863 -25 -39 -64 -62 -110 -66 -5 -1 -6 -5 -3 -10
8 -12 817 -10 875 2 25 5 73 22 107 38 288 136 354 517 129 744 -127 129 -307
172 -482 115 -95 -31 -102 -31 -140 -13 -59 28 -81 105 -46 164 23 38 70 53
136 43 225 -34 410 68 477 262 21 60 28 164 14 220 -21 87 -92 187 -169 238
-97 65 -128 69 -533 70 -200 1 -366 -2 -369 -7z m731 -35 c170 -76 251 -258
210 -473 -22 -115 -76 -199 -155 -239 -45 -24 -91 -27 -204 -17 -71 7 -84 6
-112 -12 -89 -56 -79 -193 17 -234 42 -17 50 -17 134 10 228 74 394 -4 466
-216 66 -196 28 -399 -98 -530 -99 -103 -159 -119 -435 -119 -230 0 -256 6
-290 66 -18 31 -19 66 -19 861 0 650 2 833 12 852 17 31 48 58 74 64 47 10 67
10 208 9 122 -2 153 -5 192 -22z"/>
<path d="M2933 2707 c0 -162 6 -205 28 -191 5 3 9 62 9 132 l0 126 50 -69 c87
-121 73 -119 141 -21 33 47 61 86 63 86 2 0 2 -54 2 -120 -2 -85 2 -124 10
-131 9 -7 15 -5 21 8 9 18 10 340 1 348 -3 3 -24 -23 -48 -57 -24 -35 -59 -84
-78 -111 l-34 -47 -74 104 c-40 58 -77 107 -82 110 -5 3 -9 -72 -9 -167z"/>
<path d="M3390 2863 c1 -5 24 -53 53 -109 47 -91 52 -106 52 -165 -1 -60 8
-84 27 -73 4 3 8 34 8 70 0 59 5 73 56 170 30 58 53 108 50 111 -14 15 -39
-14 -76 -87 -22 -44 -42 -80 -44 -80 -2 0 -22 38 -45 85 -31 63 -47 85 -62 85
-10 0 -19 -3 -19 -7z"/>
<path d="M3838 2850 c-51 -27 -89 -94 -90 -158 -1 -150 172 -235 284 -138 71
60 83 168 28 244 -50 70 -145 92 -222 52z m119 -19 c12 -1 35 -15 52 -32 89
-88 43 -236 -76 -246 -125 -11 -192 136 -110 239 17 21 75 47 96 43 9 -2 26
-4 38 -4z"/>
</g>
</svg>
