<svg xmlns="http://www.w3.org/2000/svg" xmlns:xlink="http://www.w3.org/1999/xlink" width="500" zoomAndPan="magnify" viewBox="0 0 375 374.999991" height="500" preserveAspectRatio="xMidYMid meet" version="1.0"><defs><g/><clipPath id="f3f9b25a2a"><path d="M 46.191406 187.5 L 306.164062 187.5 L 306.164062 207.605469 L 46.191406 207.605469 Z M 46.191406 187.5 " clip-rule="nonzero"/></clipPath></defs><g fill="#231f20" fill-opacity="1"><g transform="translate(34.236535, 229.883188)"><g><path d="M 7.632812 0 L 12.972656 0 C 11.992188 -7.847656 11.554688 -13.082031 11.554688 -24.308594 L 11.554688 -81.648438 L 47.421875 2.179688 L 51.5625 2.179688 L 84.484375 -81.976562 L 84.484375 -24.308594 C 84.484375 -13.082031 84.046875 -7.847656 83.175781 0 L 108.25 0 C 107.378906 -7.847656 106.941406 -13.082031 106.941406 -24.308594 L 106.941406 -62.898438 C 106.941406 -74.128906 107.378906 -79.359375 108.25 -87.210938 L 83.832031 -87.210938 L 60.066406 -27.90625 L 34.339844 -87.210938 L 7.632812 -87.210938 C 8.613281 -79.359375 8.9375 -74.128906 8.9375 -62.898438 L 8.9375 -24.308594 C 8.9375 -13.082031 8.613281 -7.847656 7.632812 0 Z M 7.632812 0 "/></g></g></g><g fill="#231f20" fill-opacity="1"><g transform="translate(144.661118, 229.883188)"><g><path d="M 74.128906 -77.070312 C 75.871094 -80.996094 76.636719 -82.957031 79.46875 -87.210938 L 75.109375 -87.210938 C 74.019531 -82.957031 73.367188 -81.324219 71.292969 -76.960938 L 55.269531 -42.078125 L 37.828125 -76.960938 C 35.757812 -81.105469 34.882812 -82.957031 33.683594 -87.210938 L 5.449219 -87.210938 C 8.613281 -83.722656 10.246094 -81.105469 12.320312 -76.960938 L 32.8125 -35.757812 L 32.8125 -24.308594 C 32.8125 -13.082031 32.375 -7.847656 31.503906 0 L 56.6875 0 C 55.707031 -7.847656 55.269531 -13.082031 55.269531 -24.308594 L 55.269531 -35.757812 Z M 74.128906 -77.070312 "/></g></g></g><g fill="#231f20" fill-opacity="1"><g transform="translate(224.127491, 229.883188)"><g><path d="M 59.738281 2.179688 C 89.828125 2.179688 112.828125 -14.390625 112.828125 -43.605469 C 112.828125 -72.710938 89.828125 -89.390625 59.738281 -89.390625 C 29.433594 -89.390625 6.539062 -72.710938 6.539062 -43.605469 C 6.539062 -14.390625 29.433594 2.179688 59.738281 2.179688 Z M 59.738281 -0.4375 C 39.570312 -0.4375 30.742188 -20.601562 30.742188 -43.605469 C 30.742188 -66.496094 39.570312 -86.773438 59.738281 -86.773438 C 79.6875 -86.773438 88.628906 -66.496094 88.628906 -43.605469 C 88.628906 -20.601562 79.6875 -0.4375 59.738281 -0.4375 Z M 59.738281 -0.4375 "/></g></g></g><g clip-path="url(#f3f9b25a2a)"><path fill="#ffffff" d="M 46.191406 187.5 L 306.164062 187.5 L 306.164062 207.605469 L 46.191406 207.605469 Z M 46.191406 187.5 " fill-opacity="1" fill-rule="nonzero"/></g><g fill="#231f20" fill-opacity="1"><g transform="translate(56.591613, 202.053356)"><g><path d="M 4.1875 -9.171875 C 5.363281 -9.171875 6.425781 -8.859375 7.375 -8.234375 L 6.734375 -6.875 C 5.804688 -7.4375 4.914062 -7.71875 4.0625 -7.71875 C 3.601562 -7.71875 3.242188 -7.632812 2.984375 -7.46875 C 2.722656 -7.3125 2.59375 -7.078125 2.59375 -6.765625 C 2.59375 -6.460938 2.710938 -6.207031 2.953125 -6 C 3.191406 -5.789062 3.492188 -5.632812 3.859375 -5.53125 C 4.222656 -5.425781 4.617188 -5.296875 5.046875 -5.140625 C 5.472656 -4.992188 5.863281 -4.835938 6.21875 -4.671875 C 6.582031 -4.503906 6.882812 -4.238281 7.125 -3.875 C 7.363281 -3.519531 7.484375 -3.085938 7.484375 -2.578125 C 7.484375 -1.773438 7.164062 -1.132812 6.53125 -0.65625 C 5.894531 -0.1875 5.070312 0.046875 4.0625 0.046875 C 3.363281 0.046875 2.6875 -0.0820312 2.03125 -0.34375 C 1.382812 -0.601562 0.820312 -0.953125 0.34375 -1.390625 L 1 -2.71875 C 1.457031 -2.289062 1.960938 -1.960938 2.515625 -1.734375 C 3.066406 -1.503906 3.585938 -1.390625 4.078125 -1.390625 C 4.617188 -1.390625 5.035156 -1.484375 5.328125 -1.671875 C 5.628906 -1.867188 5.78125 -2.144531 5.78125 -2.5 C 5.78125 -2.8125 5.660156 -3.070312 5.421875 -3.28125 C 5.179688 -3.488281 4.878906 -3.644531 4.515625 -3.75 C 4.148438 -3.851562 3.753906 -3.972656 3.328125 -4.109375 C 2.898438 -4.253906 2.503906 -4.40625 2.140625 -4.5625 C 1.773438 -4.726562 1.472656 -4.988281 1.234375 -5.34375 C 0.992188 -5.695312 0.875 -6.125 0.875 -6.625 C 0.875 -7.394531 1.175781 -8.007812 1.78125 -8.46875 C 2.382812 -8.9375 3.1875 -9.171875 4.1875 -9.171875 Z M 4.1875 -9.171875 "/></g></g></g><g fill="#231f20" fill-opacity="1"><g transform="translate(75.075175, 202.053356)"><g><path d="M 7.078125 -2.046875 L 2.484375 -2.046875 L 1.609375 0 L 0.015625 0 L 4.03125 -9.09375 L 5.609375 -9.09375 L 9.578125 0 L 7.9375 0 Z M 6.484375 -3.421875 L 4.765625 -7.46875 L 3.0625 -3.421875 Z M 6.484375 -3.421875 "/></g></g></g><g fill="#231f20" fill-opacity="1"><g transform="translate(95.066279, 202.053356)"><g><path d="M 9.09375 0 L 7.578125 0 L 2.734375 -6.53125 L 2.734375 0 L 1.203125 0 L 1.203125 -9.09375 L 2.703125 -9.09375 L 7.578125 -2.5625 L 7.578125 -9.09375 L 9.09375 -9.09375 Z M 9.09375 0 "/></g></g></g><g fill="#231f20" fill-opacity="1"><g transform="translate(115.759166, 202.053356)"><g><path d="M 7.40625 -7.71875 L 4.53125 -7.71875 L 4.53125 0 L 2.984375 0 L 2.984375 -7.71875 L 0.109375 -7.71875 L 0.109375 -9.09375 L 7.40625 -9.09375 Z M 7.40625 -7.71875 "/></g></g></g><g fill="#231f20" fill-opacity="1"><g transform="translate(133.683904, 202.053356)"><g><path d="M 7.078125 -2.046875 L 2.484375 -2.046875 L 1.609375 0 L 0.015625 0 L 4.03125 -9.09375 L 5.609375 -9.09375 L 9.578125 0 L 7.9375 0 Z M 6.484375 -3.421875 L 4.765625 -7.46875 L 3.0625 -3.421875 Z M 6.484375 -3.421875 "/></g></g></g><g fill="#231f20" fill-opacity="1"><g transform="translate(153.675008, 202.053356)"><g/></g></g><g fill="#231f20" fill-opacity="1"><g transform="translate(167.428013, 202.053356)"><g><path d="M 1.203125 -9.09375 L 5.140625 -9.09375 C 6.085938 -9.09375 6.832031 -8.890625 7.375 -8.484375 C 7.925781 -8.085938 8.203125 -7.535156 8.203125 -6.828125 C 8.203125 -6.316406 8.054688 -5.878906 7.765625 -5.515625 C 7.484375 -5.160156 7.097656 -4.921875 6.609375 -4.796875 C 7.210938 -4.691406 7.6875 -4.4375 8.03125 -4.03125 C 8.375 -3.625 8.546875 -3.113281 8.546875 -2.5 C 8.546875 -1.71875 8.25 -1.101562 7.65625 -0.65625 C 7.070312 -0.21875 6.265625 0 5.234375 0 L 1.203125 0 Z M 2.734375 -7.734375 L 2.734375 -5.328125 L 5.0625 -5.328125 C 5.550781 -5.328125 5.929688 -5.4375 6.203125 -5.65625 C 6.484375 -5.875 6.625 -6.171875 6.625 -6.546875 C 6.625 -6.929688 6.488281 -7.222656 6.21875 -7.421875 C 5.945312 -7.628906 5.5625 -7.734375 5.0625 -7.734375 Z M 2.734375 -3.984375 L 2.734375 -1.359375 L 5.0625 -1.359375 C 5.675781 -1.359375 6.148438 -1.472656 6.484375 -1.703125 C 6.816406 -1.929688 6.984375 -2.257812 6.984375 -2.6875 C 6.984375 -3.082031 6.8125 -3.394531 6.46875 -3.625 C 6.132812 -3.863281 5.664062 -3.984375 5.0625 -3.984375 Z M 2.734375 -3.984375 "/></g></g></g><g fill="#231f20" fill-opacity="1"><g transform="translate(187.003234, 202.053356)"><g><path d="M 7.078125 -2.046875 L 2.484375 -2.046875 L 1.609375 0 L 0.015625 0 L 4.03125 -9.09375 L 5.609375 -9.09375 L 9.578125 0 L 7.9375 0 Z M 6.484375 -3.421875 L 4.765625 -7.46875 L 3.0625 -3.421875 Z M 6.484375 -3.421875 "/></g></g></g><g fill="#231f20" fill-opacity="1"><g transform="translate(206.994332, 202.053356)"><g><path d="M 6.96875 0 L 5.296875 -2.75 C 5.210938 -2.75 5.078125 -2.75 4.890625 -2.75 L 2.734375 -2.75 L 2.734375 0 L 1.203125 0 L 1.203125 -9.09375 L 4.890625 -9.09375 C 6.046875 -9.09375 6.941406 -8.820312 7.578125 -8.28125 C 8.222656 -7.738281 8.546875 -6.976562 8.546875 -6 C 8.546875 -5.269531 8.382812 -4.648438 8.0625 -4.140625 C 7.738281 -3.640625 7.273438 -3.273438 6.671875 -3.046875 L 8.703125 0 Z M 2.734375 -4.125 L 4.890625 -4.125 C 6.359375 -4.125 7.09375 -4.734375 7.09375 -5.953125 C 7.09375 -7.128906 6.359375 -7.71875 4.890625 -7.71875 L 2.734375 -7.71875 Z M 2.734375 -4.125 "/></g></g></g><g fill="#231f20" fill-opacity="1"><g transform="translate(226.790493, 202.053356)"><g><path d="M 1.203125 -9.09375 L 5.140625 -9.09375 C 6.085938 -9.09375 6.832031 -8.890625 7.375 -8.484375 C 7.925781 -8.085938 8.203125 -7.535156 8.203125 -6.828125 C 8.203125 -6.316406 8.054688 -5.878906 7.765625 -5.515625 C 7.484375 -5.160156 7.097656 -4.921875 6.609375 -4.796875 C 7.210938 -4.691406 7.6875 -4.4375 8.03125 -4.03125 C 8.375 -3.625 8.546875 -3.113281 8.546875 -2.5 C 8.546875 -1.71875 8.25 -1.101562 7.65625 -0.65625 C 7.070312 -0.21875 6.265625 0 5.234375 0 L 1.203125 0 Z M 2.734375 -7.734375 L 2.734375 -5.328125 L 5.0625 -5.328125 C 5.550781 -5.328125 5.929688 -5.4375 6.203125 -5.65625 C 6.484375 -5.875 6.625 -6.171875 6.625 -6.546875 C 6.625 -6.929688 6.488281 -7.222656 6.21875 -7.421875 C 5.945312 -7.628906 5.5625 -7.734375 5.0625 -7.734375 Z M 2.734375 -3.984375 L 2.734375 -1.359375 L 5.0625 -1.359375 C 5.675781 -1.359375 6.148438 -1.472656 6.484375 -1.703125 C 6.816406 -1.929688 6.984375 -2.257812 6.984375 -2.6875 C 6.984375 -3.082031 6.8125 -3.394531 6.46875 -3.625 C 6.132812 -3.863281 5.664062 -3.984375 5.0625 -3.984375 Z M 2.734375 -3.984375 "/></g></g></g><g fill="#231f20" fill-opacity="1"><g transform="translate(246.365713, 202.053356)"><g><path d="M 7.078125 -2.046875 L 2.484375 -2.046875 L 1.609375 0 L 0.015625 0 L 4.03125 -9.09375 L 5.609375 -9.09375 L 9.578125 0 L 7.9375 0 Z M 6.484375 -3.421875 L 4.765625 -7.46875 L 3.0625 -3.421875 Z M 6.484375 -3.421875 "/></g></g></g><g fill="#231f20" fill-opacity="1"><g transform="translate(266.356812, 202.053356)"><g><path d="M 6.96875 0 L 5.296875 -2.75 C 5.210938 -2.75 5.078125 -2.75 4.890625 -2.75 L 2.734375 -2.75 L 2.734375 0 L 1.203125 0 L 1.203125 -9.09375 L 4.890625 -9.09375 C 6.046875 -9.09375 6.941406 -8.820312 7.578125 -8.28125 C 8.222656 -7.738281 8.546875 -6.976562 8.546875 -6 C 8.546875 -5.269531 8.382812 -4.648438 8.0625 -4.140625 C 7.738281 -3.640625 7.273438 -3.273438 6.671875 -3.046875 L 8.703125 0 Z M 2.734375 -4.125 L 4.890625 -4.125 C 6.359375 -4.125 7.09375 -4.734375 7.09375 -5.953125 C 7.09375 -7.128906 6.359375 -7.71875 4.890625 -7.71875 L 2.734375 -7.71875 Z M 2.734375 -4.125 "/></g></g></g><g fill="#231f20" fill-opacity="1"><g transform="translate(286.152984, 202.053356)"><g><path d="M 7.078125 -2.046875 L 2.484375 -2.046875 L 1.609375 0 L 0.015625 0 L 4.03125 -9.09375 L 5.609375 -9.09375 L 9.578125 0 L 7.9375 0 Z M 6.484375 -3.421875 L 4.765625 -7.46875 L 3.0625 -3.421875 Z M 6.484375 -3.421875 "/></g></g></g></svg>