<svg xmlns="http://www.w3.org/2000/svg" xmlns:xlink="http://www.w3.org/1999/xlink" width="500" zoomAndPan="magnify" viewBox="0 0 375 374.999991" height="500" preserveAspectRatio="xMidYMid meet" version="1.0"><defs><g/><clipPath id="1d348e9eb0"><path d="M 37.5 189.136719 L 321.699219 189.136719 L 321.699219 214.027344 L 37.5 214.027344 Z M 37.5 189.136719 " clip-rule="nonzero"/></clipPath></defs><g fill="#231f20" fill-opacity="1"><g transform="translate(13.303632, 237.490313)"><g><path d="M 8.960938 0 L 14.464844 0 C 13.441406 -9.730469 13.058594 -15.488281 13.058594 -27.394531 L 13.058594 -95.878906 L 55.941406 2.558594 L 59.90625 2.558594 L 99.71875 -96.261719 L 99.71875 -27.394531 C 99.71875 -15.488281 99.335938 -9.730469 98.4375 0 L 122.632812 0 C 121.609375 -9.730469 121.351562 -15.488281 121.351562 -27.394531 L 121.351562 -75.011719 C 121.351562 -86.917969 121.609375 -92.679688 122.632812 -102.40625 L 99.460938 -102.40625 L 67.972656 -26.371094 L 34.179688 -102.40625 L 8.960938 -102.40625 C 9.984375 -92.679688 10.367188 -86.917969 10.367188 -75.011719 L 10.367188 -27.394531 C 10.367188 -15.488281 9.984375 -9.730469 8.960938 0 Z M 8.960938 0 "/></g></g></g><g fill="#231f20" fill-opacity="1"><g transform="translate(138.493907, 237.490313)"><g><path d="M 82.820312 -90.5 C 84.996094 -95.109375 86.019531 -97.414062 89.347656 -102.40625 L 84.871094 -102.40625 C 83.207031 -97.414062 82.4375 -95.492188 79.878906 -90.375 L 60.035156 -48.898438 L 38.914062 -90.375 C 36.355469 -95.238281 35.332031 -97.414062 33.792969 -102.40625 L 6.402344 -102.40625 C 10.113281 -98.183594 11.90625 -95.238281 14.464844 -90.375 L 38.660156 -42.753906 L 38.660156 -27.394531 C 38.660156 -15.488281 38.273438 -9.730469 37.25 0 L 61.570312 0 C 60.546875 -9.730469 60.164062 -15.488281 60.164062 -27.394531 L 60.164062 -42.753906 Z M 82.820312 -90.5 "/></g></g></g><g fill="#231f20" fill-opacity="1"><g transform="translate(227.842337, 237.490313)"><g><path d="M 68.226562 2.558594 C 102.789062 2.558594 128.902344 -17.921875 128.902344 -51.203125 C 128.902344 -84.355469 102.789062 -104.964844 68.226562 -104.964844 C 33.667969 -104.964844 7.679688 -84.355469 7.679688 -51.203125 C 7.679688 -17.921875 33.667969 2.558594 68.226562 2.558594 Z M 68.226562 -0.128906 C 43.394531 -0.128906 30.976562 -24.195312 30.976562 -51.203125 C 30.976562 -78.085938 43.394531 -102.277344 68.226562 -102.277344 C 93.0625 -102.277344 105.605469 -78.085938 105.605469 -51.203125 C 105.605469 -24.195312 93.0625 -0.128906 68.226562 -0.128906 Z M 68.226562 -0.128906 "/></g></g></g><g clip-path="url(#1d348e9eb0)"><path fill="#ffffff" d="M 37.5 189.136719 L 321.699219 189.136719 L 321.699219 214.027344 L 37.5 214.027344 Z M 37.5 189.136719 " fill-opacity="1" fill-rule="nonzero"/></g><g fill="#af8484" fill-opacity="1"><g transform="translate(38.172843, 207.581852)"><g><path d="M 4.828125 -10.578125 C 6.191406 -10.578125 7.414062 -10.21875 8.5 -9.5 L 7.765625 -7.9375 C 6.703125 -8.582031 5.675781 -8.90625 4.6875 -8.90625 C 4.164062 -8.90625 3.75 -8.8125 3.4375 -8.625 C 3.132812 -8.4375 2.984375 -8.164062 2.984375 -7.8125 C 2.984375 -7.46875 3.125 -7.171875 3.40625 -6.921875 C 3.6875 -6.679688 4.035156 -6.5 4.453125 -6.375 C 4.867188 -6.257812 5.320312 -6.113281 5.8125 -5.9375 C 6.3125 -5.769531 6.769531 -5.585938 7.1875 -5.390625 C 7.601562 -5.191406 7.945312 -4.882812 8.21875 -4.46875 C 8.5 -4.0625 8.640625 -3.5625 8.640625 -2.96875 C 8.640625 -2.050781 8.269531 -1.316406 7.53125 -0.765625 C 6.800781 -0.210938 5.851562 0.0625 4.6875 0.0625 C 3.882812 0.0625 3.109375 -0.0859375 2.359375 -0.390625 C 1.609375 -0.691406 0.953125 -1.097656 0.390625 -1.609375 L 1.15625 -3.140625 C 1.6875 -2.648438 2.269531 -2.269531 2.90625 -2 C 3.539062 -1.738281 4.140625 -1.609375 4.703125 -1.609375 C 5.328125 -1.609375 5.8125 -1.71875 6.15625 -1.9375 C 6.5 -2.164062 6.671875 -2.476562 6.671875 -2.875 C 6.671875 -3.238281 6.53125 -3.539062 6.25 -3.78125 C 5.96875 -4.03125 5.617188 -4.210938 5.203125 -4.328125 C 4.785156 -4.441406 4.332031 -4.582031 3.84375 -4.75 C 3.351562 -4.914062 2.894531 -5.085938 2.46875 -5.265625 C 2.050781 -5.453125 1.703125 -5.75 1.421875 -6.15625 C 1.140625 -6.570312 1 -7.070312 1 -7.65625 C 1 -8.539062 1.347656 -9.25 2.046875 -9.78125 C 2.753906 -10.3125 3.679688 -10.578125 4.828125 -10.578125 Z M 4.828125 -10.578125 "/></g></g></g><g fill="#af8484" fill-opacity="1"><g transform="translate(59.502832, 207.581852)"><g><path d="M 8.15625 -2.375 L 2.859375 -2.375 L 1.859375 0 L 0.015625 0 L 4.65625 -10.5 L 6.46875 -10.5 L 11.0625 0 L 9.171875 0 Z M 7.484375 -3.9375 L 5.5 -8.609375 L 3.53125 -3.9375 Z M 7.484375 -3.9375 "/></g></g></g><g fill="#af8484" fill-opacity="1"><g transform="translate(82.572815, 207.581852)"><g><path d="M 10.484375 0 L 8.75 0 L 3.15625 -7.53125 L 3.15625 0 L 1.375 0 L 1.375 -10.5 L 3.125 -10.5 L 8.75 -2.953125 L 8.75 -10.5 L 10.484375 -10.5 Z M 10.484375 0 "/></g></g></g><g fill="#af8484" fill-opacity="1"><g transform="translate(106.452799, 207.581852)"><g><path d="M 8.546875 -8.90625 L 5.21875 -8.90625 L 5.21875 0 L 3.453125 0 L 3.453125 -8.90625 L 0.140625 -8.90625 L 0.140625 -10.5 L 8.546875 -10.5 Z M 8.546875 -8.90625 "/></g></g></g><g fill="#af8484" fill-opacity="1"><g transform="translate(127.137788, 207.581852)"><g><path d="M 8.15625 -2.375 L 2.859375 -2.375 L 1.859375 0 L 0.015625 0 L 4.65625 -10.5 L 6.46875 -10.5 L 11.0625 0 L 9.171875 0 Z M 7.484375 -3.9375 L 5.5 -8.609375 L 3.53125 -3.9375 Z M 7.484375 -3.9375 "/></g></g></g><g fill="#af8484" fill-opacity="1"><g transform="translate(150.207771, 207.581852)"><g/></g></g><g fill="#af8484" fill-opacity="1"><g transform="translate(166.07776, 207.581852)"><g><path d="M 1.375 -10.5 L 5.9375 -10.5 C 7.03125 -10.5 7.890625 -10.265625 8.515625 -9.796875 C 9.148438 -9.335938 9.46875 -8.695312 9.46875 -7.875 C 9.46875 -7.28125 9.300781 -6.773438 8.96875 -6.359375 C 8.632812 -5.953125 8.1875 -5.675781 7.625 -5.53125 C 8.320312 -5.414062 8.867188 -5.117188 9.265625 -4.640625 C 9.671875 -4.171875 9.875 -3.582031 9.875 -2.875 C 9.875 -1.976562 9.53125 -1.273438 8.84375 -0.765625 C 8.164062 -0.253906 7.234375 0 6.046875 0 L 1.375 0 Z M 3.15625 -8.921875 L 3.15625 -6.15625 L 5.84375 -6.15625 C 6.40625 -6.15625 6.847656 -6.28125 7.171875 -6.53125 C 7.492188 -6.78125 7.65625 -7.125 7.65625 -7.5625 C 7.65625 -8 7.492188 -8.332031 7.171875 -8.5625 C 6.859375 -8.800781 6.414062 -8.921875 5.84375 -8.921875 Z M 3.15625 -4.59375 L 3.15625 -1.578125 L 5.84375 -1.578125 C 6.550781 -1.578125 7.097656 -1.707031 7.484375 -1.96875 C 7.867188 -2.238281 8.0625 -2.617188 8.0625 -3.109375 C 8.0625 -3.566406 7.863281 -3.925781 7.46875 -4.1875 C 7.082031 -4.457031 6.539062 -4.59375 5.84375 -4.59375 Z M 3.15625 -4.59375 "/></g></g></g><g fill="#af8484" fill-opacity="1"><g transform="translate(188.667744, 207.581852)"><g><path d="M 8.15625 -2.375 L 2.859375 -2.375 L 1.859375 0 L 0.015625 0 L 4.65625 -10.5 L 6.46875 -10.5 L 11.0625 0 L 9.171875 0 Z M 7.484375 -3.9375 L 5.5 -8.609375 L 3.53125 -3.9375 Z M 7.484375 -3.9375 "/></g></g></g><g fill="#af8484" fill-opacity="1"><g transform="translate(211.737727, 207.581852)"><g><path d="M 8.046875 0 L 6.125 -3.1875 C 6.019531 -3.175781 5.859375 -3.171875 5.640625 -3.171875 L 3.15625 -3.171875 L 3.15625 0 L 1.375 0 L 1.375 -10.5 L 5.640625 -10.5 C 6.984375 -10.5 8.023438 -10.1875 8.765625 -9.5625 C 9.503906 -8.9375 9.875 -8.054688 9.875 -6.921875 C 9.875 -6.078125 9.6875 -5.363281 9.3125 -4.78125 C 8.9375 -4.207031 8.394531 -3.785156 7.6875 -3.515625 L 10.046875 0 Z M 3.15625 -4.75 L 5.640625 -4.75 C 7.335938 -4.75 8.1875 -5.457031 8.1875 -6.875 C 8.1875 -8.226562 7.335938 -8.90625 5.640625 -8.90625 L 3.15625 -8.90625 Z M 3.15625 -4.75 "/></g></g></g><g fill="#af8484" fill-opacity="1"><g transform="translate(234.582718, 207.581852)"><g><path d="M 1.375 -10.5 L 5.9375 -10.5 C 7.03125 -10.5 7.890625 -10.265625 8.515625 -9.796875 C 9.148438 -9.335938 9.46875 -8.695312 9.46875 -7.875 C 9.46875 -7.28125 9.300781 -6.773438 8.96875 -6.359375 C 8.632812 -5.953125 8.1875 -5.675781 7.625 -5.53125 C 8.320312 -5.414062 8.867188 -5.117188 9.265625 -4.640625 C 9.671875 -4.171875 9.875 -3.582031 9.875 -2.875 C 9.875 -1.976562 9.53125 -1.273438 8.84375 -0.765625 C 8.164062 -0.253906 7.234375 0 6.046875 0 L 1.375 0 Z M 3.15625 -8.921875 L 3.15625 -6.15625 L 5.84375 -6.15625 C 6.40625 -6.15625 6.847656 -6.28125 7.171875 -6.53125 C 7.492188 -6.78125 7.65625 -7.125 7.65625 -7.5625 C 7.65625 -8 7.492188 -8.332031 7.171875 -8.5625 C 6.859375 -8.800781 6.414062 -8.921875 5.84375 -8.921875 Z M 3.15625 -4.59375 L 3.15625 -1.578125 L 5.84375 -1.578125 C 6.550781 -1.578125 7.097656 -1.707031 7.484375 -1.96875 C 7.867188 -2.238281 8.0625 -2.617188 8.0625 -3.109375 C 8.0625 -3.566406 7.863281 -3.925781 7.46875 -4.1875 C 7.082031 -4.457031 6.539062 -4.59375 5.84375 -4.59375 Z M 3.15625 -4.59375 "/></g></g></g><g fill="#af8484" fill-opacity="1"><g transform="translate(257.172691, 207.581852)"><g><path d="M 8.15625 -2.375 L 2.859375 -2.375 L 1.859375 0 L 0.015625 0 L 4.65625 -10.5 L 6.46875 -10.5 L 11.0625 0 L 9.171875 0 Z M 7.484375 -3.9375 L 5.5 -8.609375 L 3.53125 -3.9375 Z M 7.484375 -3.9375 "/></g></g></g><g fill="#af8484" fill-opacity="1"><g transform="translate(280.242673, 207.581852)"><g><path d="M 8.046875 0 L 6.125 -3.1875 C 6.019531 -3.175781 5.859375 -3.171875 5.640625 -3.171875 L 3.15625 -3.171875 L 3.15625 0 L 1.375 0 L 1.375 -10.5 L 5.640625 -10.5 C 6.984375 -10.5 8.023438 -10.1875 8.765625 -9.5625 C 9.503906 -8.9375 9.875 -8.054688 9.875 -6.921875 C 9.875 -6.078125 9.6875 -5.363281 9.3125 -4.78125 C 8.9375 -4.207031 8.394531 -3.785156 7.6875 -3.515625 L 10.046875 0 Z M 3.15625 -4.75 L 5.640625 -4.75 C 7.335938 -4.75 8.1875 -5.457031 8.1875 -6.875 C 8.1875 -8.226562 7.335938 -8.90625 5.640625 -8.90625 L 3.15625 -8.90625 Z M 3.15625 -4.75 "/></g></g></g><g fill="#af8484" fill-opacity="1"><g transform="translate(303.087665, 207.581852)"><g><path d="M 8.15625 -2.375 L 2.859375 -2.375 L 1.859375 0 L 0.015625 0 L 4.65625 -10.5 L 6.46875 -10.5 L 11.0625 0 L 9.171875 0 Z M 7.484375 -3.9375 L 5.5 -8.609375 L 3.53125 -3.9375 Z M 7.484375 -3.9375 "/></g></g></g></svg>