<svg xmlns="http://www.w3.org/2000/svg" xmlns:xlink="http://www.w3.org/1999/xlink" version="1.1" width="391.337" height="74.6" viewBox="0 0 391.337 74.6">
<defs>
<clipPath id="clip_0">
<path transform="matrix(1,0,0,-1,0,74.6)" d="M0 74.6H391.337V0H0Z"/>
</clipPath>
</defs>
<g clip-path="url(#clip_0)">
<path transform="matrix(1,0,0,-1,65.187,15.459999)" d="M0 0C0 2.11 .76 3.93 2.28 5.45 3.8 6.97 5.62 7.73 7.73 7.73 9.9 7.73 11.75 6.97 13.27 5.45 14.79 3.93 15.56 2.11 15.56 0V-4.83H0ZM31.02-12.56V0C31.02 4.22 29.5 7.86 26.45 10.9 23.41 13.94 19.78 15.46 15.56 15.46H0C-4.23 15.46-7.87 13.94-10.95 10.9-14.02 7.86-15.56 4.22-15.56 0V-20.29C-15.56-24.58-14.02-28.24-10.95-31.28-7.87-34.33-4.23-35.85 0-35.85H15.56C24.68-35.85 29.84-30.66 31.02-20.29H23.29C23.29-25.51 20.71-28.12 15.56-28.12H7.73C5.62-28.12 3.8-27.34 2.28-25.79 .76-24.23 0-22.4 0-20.29V-12.56Z"/>
<path transform="matrix(1,0,0,-1,133.567,0)" d="M0 0V-35.75C0-37.86-.77-39.69-2.29-41.25-3.81-42.8-5.66-43.58-7.83-43.58H-15.56V0H-31.12V-51.31H-11C-3.73-51.31 2.5-48.7 7.68-43.48 12.87-38.27 15.46-32.02 15.46-24.76V0Z"/>
<path transform="matrix(1,0,0,-1,186.387,35.75)" d="M0 0C0-2.11-.76-3.94-2.29-5.5-3.81-7.05-5.66-7.83-7.83-7.83-9.94-7.83-11.76-7.05-13.28-5.5-14.8-3.94-15.56-2.11-15.56 0V20.29C-15.56 22.4-14.8 24.22-13.28 25.74-11.76 27.26-9.94 28.02-7.83 28.02-5.66 28.02-3.81 27.26-2.29 25.74-.76 24.22 0 22.4 0 20.29ZM12.52 29.33C12.24 29.7 11.93 30.07 11.61 30.43 11.39 30.69 11.15 30.94 10.9 31.19 7.85 34.23 4.22 35.75 0 35.75H-15.56C-19.79 35.75-23.43 34.23-26.51 31.19-29.58 28.15-31.12 24.51-31.12 20.29V0C-31.12-4.29-29.58-7.95-26.51-10.99-23.43-14.04-19.79-15.56-15.56-15.56H0C4.22-15.56 7.85-14.02 10.9-10.95 13.94-7.87 15.46-4.22 15.46 0V20.29C15.46 23.68 14.48 26.7 12.52 29.33"/>
<path transform="matrix(1,0,0,-1,281.1771,4.5599977)" d="M0 0C-3.08 3.04-6.73 4.56-10.95 4.56H-18.68C-21.35 4.56-23.65 4.11-25.58 3.21-27.5 2.31-29.09 .93-30.33-.93-30.76-.29-31.24 .29-31.76 .82-34.02 3.12-37.1 4.36-41 4.54-41.08 4.55-41.16 4.55-41.24 4.54-41.48 4.56-41.72 4.56-41.97 4.56H-49.8C-52.03 4.56-53.8 3.93-55.11 2.65-56.41 1.38-57.22-.56-57.53-3.17V4.56H-65.34C-65.37 3.69-65.52 2.84-65.76 2.04-65.83 1.82-65.9 1.61-65.99 1.4-67.19-1.63-69.84-3.93-73.09-4.65V-46.75H-57.53V-10.9C-57.53-9.34-57.12-7.95-56.29-6.71-56-6.27-55.65-5.85-55.25-5.45-53.73-3.93-51.91-3.17-49.8-3.17-47.62-3.17-45.78-3.93-44.25-5.45-42.73-6.97-41.97-8.79-41.97-10.9V-46.75H-26.51V-10.9C-26.51-8.79-25.73-6.97-24.18-5.45-22.63-3.93-20.79-3.17-18.68-3.17-16.57-3.17-14.75-3.95-13.23-5.5-11.71-7.05-10.95-8.85-10.95-10.9V-46.75H4.61V-10.9C4.61-6.68 3.07-3.04 0 0"/>
<path transform="matrix(1,0,0,-1,323.0471,35.75)" d="M0 0C0-2.11-.76-3.94-2.28-5.5-3.8-7.05-5.65-7.83-7.82-7.83-9.94-7.83-11.75-7.05-13.27-5.5-14.8-3.94-15.56-2.11-15.56 0-15.56 2.11-14.8 3.93-13.27 5.45-11.75 6.97-9.94 7.73-7.82 7.73H0ZM10.9 31.19C7.86 34.23 4.22 35.75 0 35.75H-15.56C-24.69 35.75-29.87 30.6-31.11 20.29H-23.29C-22.73 25.44-20.15 28.02-15.56 28.02H-7.82C-5.65 28.02-3.8 27.26-2.28 25.74-.76 24.22 0 22.4 0 20.29V15.46H-15.56C-19.78 15.46-23.43 13.94-26.5 10.9-29.58 7.86-31.11 4.22-31.11 0-31.11-4.29-29.58-7.95-26.5-10.99-23.43-14.04-19.78-15.56-15.56-15.56H-7.82C-3.23-15.56-.62-12.98 0-7.83V-15.56H15.47V20.29C15.47 24.51 13.94 28.15 10.9 31.19"/>
<path transform="matrix(1,0,0,-1,375.867,35.75)" d="M0 0C0-2.11-.76-3.94-2.28-5.5-3.8-7.05-5.65-7.83-7.82-7.83-9.94-7.83-11.75-7.05-13.27-5.5-14.8-3.94-15.56-2.11-15.56 0V20.29C-15.56 22.4-14.8 24.22-13.27 25.74-11.75 27.26-9.94 28.02-7.82 28.02H0ZM-15.56 35.75C-19.78 35.75-23.43 34.23-26.5 31.19-29.58 28.15-31.11 24.51-31.11 20.29V0C-31.11-4.29-29.58-7.95-26.5-10.99-23.43-14.04-19.78-15.56-15.56-15.56H-7.82C-3.23-15.56-.62-12.98 0-7.83V-23.29C0-25.46-.76-27.31-2.28-28.83-3.8-30.35-5.65-31.12-7.82-31.12H-15.56C-20.34-31.12-22.91-28.51-23.29-23.29H-31.11C-29.87-33.66-24.68-38.85-15.56-38.85H0C4.23-38.85 7.86-37.31 10.9-34.24 13.94-31.16 15.47-27.51 15.47-23.29V35.75Z"/>
<path transform="matrix(1,0,0,-1,44.747,0)" d="M0 0H-6.64-8.06C-13.14 0-17.11-1.43-19.99-4.31-20.05-4.37-20.11-4.42-20.16-4.48-20.21-4.53-20.25-4.58-20.3-4.63-20.37-4.71-20.44-4.79-20.51-4.86-20.6-4.96-20.69-5.06-20.77-5.15-20.85-5.25-20.92-5.34-21-5.44-21.18-5.66-21.35-5.88-21.52-6.12-21.59-6.21-21.65-6.31-21.72-6.4-21.83-6.56-21.94-6.73-22.05-6.9-22.13-7.04-22.22-7.18-22.3-7.32-22.39-7.48-22.49-7.64-22.57-7.8-22.64-7.92-22.7-8.03-22.76-8.15-22.82-8.27-22.89-8.4-22.95-8.52-22.99-8.62-23.04-8.72-23.09-8.82-23.16-8.97-23.23-9.13-23.31-9.3-23.39-9.48-23.47-9.68-23.54-9.87-23.56-9.92-23.58-9.96-23.6-10.01-23.69-10.22-23.76-10.44-23.84-10.65-23.93-10.89-24.01-11.13-24.08-11.37L-24.09-11.38C-24.16-11.62-24.24-11.86-24.31-12.11-24.37-12.31-24.42-12.52-24.48-12.73-24.51-12.83-24.53-12.93-24.55-13.02-24.61-13.23-24.66-13.45-24.71-13.66-24.76-13.93-24.82-14.2-24.88-14.47-24.95-14.83-25.01-15.19-25.07-15.56-25.08-15.59-25.08-15.63-25.09-15.66-25.13-15.89-25.16-16.12-25.19-16.36-25.23-16.65-25.27-16.94-25.31-17.24V0H-33.07C-33.32-5.08-37.39-9.16-42.47-9.43V-39.9C-42.47-40.13-42.48-40.37-42.5-40.6V-48.53H-25.31V-25.78C-25.31-24.61-25.1-23.53-24.67-22.53-24.57-22.27-24.45-22.03-24.32-21.79-24.18-21.55-24.04-21.31-23.88-21.08-23.64-20.73-23.38-20.4-23.08-20.08-22.98-19.97-22.88-19.87-22.77-19.76-21.08-18.08-19.05-17.24-16.69-17.24H.48V0Z"/>
<path transform="matrix(1,0,0,-1,2.247,40.6)" d="M0 0V-7.93H-.88C-1.93-7.93-2.59-6.79-2.06-5.89L-1.01-3.76C-.43-2.59-.09-1.31 0 0"/>
<path transform="matrix(1,0,0,-1,102.4594,43.3805)" d="M0 0V-7.93H-.88C-1.93-7.93-2.59-6.79-2.06-5.89L-1.01-3.76C-.43-2.59-.09-1.31 0 0"/>
<path transform="matrix(1,0,0,-1,208.0892,43.3769)" d="M0 0V-7.93H-.88C-1.93-7.93-2.59-6.79-2.06-5.89L-1.01-3.76C-.43-2.59-.09-1.31 0 0"/>
<path transform="matrix(1,0,0,-1,239.1584,43.3769)" d="M0 0V-7.93H-.88C-1.93-7.93-2.59-6.79-2.06-5.89L-1.01-3.76C-.43-2.59-.09-1.31 0 0"/>
<path transform="matrix(1,0,0,-1,270.2275,43.3769)" d="M0 0V-7.93H-.88C-1.93-7.93-2.59-6.79-2.06-5.89L-1.01-3.76C-.43-2.59-.09-1.31 0 0"/>
</g>
</svg>
